<svg width="54" height="55" viewBox="0 0 54 55" fill="none" xmlns="http://www.w3.org/2000/svg">
<path d="M45.2846 0.839233L54 8.94213L49.2299 32.2283L37.3167 40.1286L45.2846 0.839233Z" fill="white" fill-opacity="0.6"/>
<path d="M44.127 0.467834L33.2653 4.51928L41.0257 16.1286L44.127 0.467834Z" fill="white" fill-opacity="0.6"/>
<path d="M32.0932 4.67846L8.71544 0L0.636658 8.71543L40.1286 16.7942L32.0932 4.67846Z" fill="white" fill-opacity="0.6"/>
<path d="M15.8441 12.9839L0.636658 9.89709L4.49518 20.7926L15.8441 12.9839Z" fill="white" fill-opacity="0.6"/>
<path d="M16.7074 14.0257L4.72186 21.8826L0 45.1206L8.80707 53.291L16.7074 14.0257Z" fill="white" fill-opacity="0.6"/>
<path d="M49.4807 33.3184L37.9052 40.992L53.4309 44.1704L49.4807 33.3184Z" fill="white" fill-opacity="0.6"/>
<path d="M53.1559 45.2122L13.9389 37.2685L21.926 49.3891L45.2122 54.0193L53.1559 45.2122Z" fill="white" fill-opacity="0.6"/>
<path d="M13.0273 37.9485L20.7926 49.5723L9.80548 53.5659L13.0273 37.9485Z" fill="white" fill-opacity="0.6"/>
<path d="M23.6332 33.176C20.6572 33.176 19.1692 30.792 19.1692 27.544C19.1692 24.296 20.6572 21.944 23.6332 21.944C26.5932 21.944 28.0812 24.296 28.0812 27.544C28.0812 30.792 26.5932 33.176 23.6332 33.176ZM23.6332 31.144C25.0412 31.144 25.6172 29.688 25.6172 27.544C25.6172 25.384 25.0412 23.976 23.6332 23.976C22.2252 23.976 21.6332 25.384 21.6332 27.544C21.6332 29.688 22.2252 31.144 23.6332 31.144ZM31.2663 33.016L31.3143 24.328L29.7143 25.608L29.0743 23.416L31.9863 22.072H32.5143H33.7463V33.016H31.2663Z" fill="white"/>
</svg>
